<mxfile host="Electron" modified="2023-06-29T11:58:00.713Z" agent="Mozilla/5.0 (Windows NT 10.0; Win64; x64) AppleWebKit/537.36 (KHTML, like Gecko) draw.io/21.5.0 Chrome/112.0.5615.204 Electron/24.5.1 Safari/537.36" etag="wDJUEGJtQwqML6cnrfVE" version="21.5.0" type="device">
  <diagram id="C5RBs43oDa-KdzZeNtuy" name="Page-1">
    <mxGraphModel dx="1050" dy="629" grid="1" gridSize="10" guides="1" tooltips="1" connect="1" arrows="1" fold="1" page="1" pageScale="1" pageWidth="827" pageHeight="1169" math="0" shadow="0">
      <root>
        <mxCell id="WIyWlLk6GJQsqaUBKTNV-0" />
        <mxCell id="WIyWlLk6GJQsqaUBKTNV-1" parent="WIyWlLk6GJQsqaUBKTNV-0" />
        <mxCell id="Az4s7ZVv2WBWuJfPX9RD-12" style="edgeStyle=orthogonalEdgeStyle;rounded=0;orthogonalLoop=1;jettySize=auto;html=1;exitX=0.5;exitY=1;exitDx=0;exitDy=0;entryX=0.5;entryY=0;entryDx=0;entryDy=0;" edge="1" parent="WIyWlLk6GJQsqaUBKTNV-1" source="WIyWlLk6GJQsqaUBKTNV-3" target="Az4s7ZVv2WBWuJfPX9RD-0">
          <mxGeometry relative="1" as="geometry" />
        </mxCell>
        <mxCell id="WIyWlLk6GJQsqaUBKTNV-3" value="Start" style="rounded=1;whiteSpace=wrap;html=1;fontSize=12;glass=0;strokeWidth=1;shadow=0;" parent="WIyWlLk6GJQsqaUBKTNV-1" vertex="1">
          <mxGeometry x="160" y="80" width="120" height="40" as="geometry" />
        </mxCell>
        <mxCell id="Az4s7ZVv2WBWuJfPX9RD-13" style="edgeStyle=orthogonalEdgeStyle;rounded=0;orthogonalLoop=1;jettySize=auto;html=1;exitX=0.5;exitY=1;exitDx=0;exitDy=0;entryX=0.5;entryY=0;entryDx=0;entryDy=0;" edge="1" parent="WIyWlLk6GJQsqaUBKTNV-1" source="Az4s7ZVv2WBWuJfPX9RD-0" target="Az4s7ZVv2WBWuJfPX9RD-1">
          <mxGeometry relative="1" as="geometry" />
        </mxCell>
        <mxCell id="Az4s7ZVv2WBWuJfPX9RD-0" value="Show logo from&lt;br&gt;art.py" style="rounded=1;whiteSpace=wrap;html=1;" vertex="1" parent="WIyWlLk6GJQsqaUBKTNV-1">
          <mxGeometry x="160" y="150" width="120" height="40" as="geometry" />
        </mxCell>
        <mxCell id="Az4s7ZVv2WBWuJfPX9RD-14" style="edgeStyle=orthogonalEdgeStyle;rounded=0;orthogonalLoop=1;jettySize=auto;html=1;exitX=0.5;exitY=1;exitDx=0;exitDy=0;entryX=0.5;entryY=0;entryDx=0;entryDy=0;" edge="1" parent="WIyWlLk6GJQsqaUBKTNV-1" source="Az4s7ZVv2WBWuJfPX9RD-1" target="Az4s7ZVv2WBWuJfPX9RD-2">
          <mxGeometry relative="1" as="geometry" />
        </mxCell>
        <mxCell id="Az4s7ZVv2WBWuJfPX9RD-1" value="Ask for Name input" style="rounded=1;whiteSpace=wrap;html=1;" vertex="1" parent="WIyWlLk6GJQsqaUBKTNV-1">
          <mxGeometry x="160" y="220" width="120" height="40" as="geometry" />
        </mxCell>
        <mxCell id="Az4s7ZVv2WBWuJfPX9RD-16" style="edgeStyle=orthogonalEdgeStyle;rounded=0;orthogonalLoop=1;jettySize=auto;html=1;exitX=0.5;exitY=1;exitDx=0;exitDy=0;entryX=0.458;entryY=0;entryDx=0;entryDy=0;entryPerimeter=0;" edge="1" parent="WIyWlLk6GJQsqaUBKTNV-1" source="Az4s7ZVv2WBWuJfPX9RD-2" target="Az4s7ZVv2WBWuJfPX9RD-3">
          <mxGeometry relative="1" as="geometry" />
        </mxCell>
        <mxCell id="Az4s7ZVv2WBWuJfPX9RD-2" value="Ask for Bid Price" style="rounded=1;whiteSpace=wrap;html=1;" vertex="1" parent="WIyWlLk6GJQsqaUBKTNV-1">
          <mxGeometry x="160" y="290" width="120" height="40" as="geometry" />
        </mxCell>
        <mxCell id="Az4s7ZVv2WBWuJfPX9RD-18" style="edgeStyle=orthogonalEdgeStyle;rounded=0;orthogonalLoop=1;jettySize=auto;html=1;exitX=0.5;exitY=1;exitDx=0;exitDy=0;entryX=0.5;entryY=0;entryDx=0;entryDy=0;" edge="1" parent="WIyWlLk6GJQsqaUBKTNV-1" source="Az4s7ZVv2WBWuJfPX9RD-3" target="Az4s7ZVv2WBWuJfPX9RD-4">
          <mxGeometry relative="1" as="geometry" />
        </mxCell>
        <mxCell id="Az4s7ZVv2WBWuJfPX9RD-3" value="Add Name and Bid into a&lt;br&gt;dictionary as the key and value. {key: value}" style="rounded=1;whiteSpace=wrap;html=1;" vertex="1" parent="WIyWlLk6GJQsqaUBKTNV-1">
          <mxGeometry x="110" y="370" width="240" height="40" as="geometry" />
        </mxCell>
        <mxCell id="Az4s7ZVv2WBWuJfPX9RD-7" style="edgeStyle=orthogonalEdgeStyle;rounded=0;orthogonalLoop=1;jettySize=auto;html=1;exitX=1;exitY=0.5;exitDx=0;exitDy=0;" edge="1" parent="WIyWlLk6GJQsqaUBKTNV-1" source="Az4s7ZVv2WBWuJfPX9RD-4" target="Az4s7ZVv2WBWuJfPX9RD-6">
          <mxGeometry relative="1" as="geometry" />
        </mxCell>
        <mxCell id="Az4s7ZVv2WBWuJfPX9RD-9" style="edgeStyle=orthogonalEdgeStyle;rounded=0;orthogonalLoop=1;jettySize=auto;html=1;exitX=0;exitY=0.5;exitDx=0;exitDy=0;entryX=0.427;entryY=0.048;entryDx=0;entryDy=0;entryPerimeter=0;" edge="1" parent="WIyWlLk6GJQsqaUBKTNV-1" source="Az4s7ZVv2WBWuJfPX9RD-4" target="Az4s7ZVv2WBWuJfPX9RD-5">
          <mxGeometry relative="1" as="geometry" />
        </mxCell>
        <mxCell id="Az4s7ZVv2WBWuJfPX9RD-4" value="Ask if there are other&lt;br&gt;users who want to bid" style="rhombus;whiteSpace=wrap;html=1;" vertex="1" parent="WIyWlLk6GJQsqaUBKTNV-1">
          <mxGeometry x="140" y="450" width="170" height="80" as="geometry" />
        </mxCell>
        <mxCell id="Az4s7ZVv2WBWuJfPX9RD-11" style="edgeStyle=orthogonalEdgeStyle;rounded=0;orthogonalLoop=1;jettySize=auto;html=1;exitX=0;exitY=0.5;exitDx=0;exitDy=0;entryX=0;entryY=0.5;entryDx=0;entryDy=0;" edge="1" parent="WIyWlLk6GJQsqaUBKTNV-1" source="Az4s7ZVv2WBWuJfPX9RD-5" target="Az4s7ZVv2WBWuJfPX9RD-1">
          <mxGeometry relative="1" as="geometry" />
        </mxCell>
        <mxCell id="Az4s7ZVv2WBWuJfPX9RD-5" value="Clear the screen" style="rounded=1;whiteSpace=wrap;html=1;" vertex="1" parent="WIyWlLk6GJQsqaUBKTNV-1">
          <mxGeometry x="70" y="560" width="120" height="50" as="geometry" />
        </mxCell>
        <mxCell id="Az4s7ZVv2WBWuJfPX9RD-6" value="Find the highest bid in the dictionary and declare them as the winter." style="rounded=1;whiteSpace=wrap;html=1;" vertex="1" parent="WIyWlLk6GJQsqaUBKTNV-1">
          <mxGeometry x="260" y="560" width="240" height="50" as="geometry" />
        </mxCell>
        <mxCell id="Az4s7ZVv2WBWuJfPX9RD-8" value="No" style="text;html=1;align=center;verticalAlign=middle;resizable=0;points=[];autosize=1;strokeColor=none;fillColor=none;" vertex="1" parent="WIyWlLk6GJQsqaUBKTNV-1">
          <mxGeometry x="370" y="498" width="40" height="30" as="geometry" />
        </mxCell>
        <mxCell id="Az4s7ZVv2WBWuJfPX9RD-10" value="Yes" style="text;html=1;align=center;verticalAlign=middle;resizable=0;points=[];autosize=1;strokeColor=none;fillColor=none;" vertex="1" parent="WIyWlLk6GJQsqaUBKTNV-1">
          <mxGeometry x="70" y="508" width="40" height="30" as="geometry" />
        </mxCell>
      </root>
    </mxGraphModel>
  </diagram>
</mxfile>
